<svg xmlns="http://www.w3.org/2000/svg" viewBox="0 0 32 32" fill="none">
  <defs>
    <linearGradient id="dg" x1="0%" y1="0%" x2="100%" y2="100%">
      <stop offset="0%" stop-color="#0078D4"/>
      <stop offset="100%" stop-color="#004E8C"/>
    </linearGradient>
  </defs>
  <circle cx="16" cy="16" r="13" fill="#EFF6FC"/>
  <path d="M16 4 C22.6 4 28 9.4 28 16 C28 22.6 22.6 28 16 28" stroke="url(#dg)" stroke-width="2.8" stroke-linecap="round" fill="none"/>
  <path d="M16 28 C9.4 28 4 22.6 4 16 C4 9.4 9.4 4 16 4" stroke="#50ABF1" stroke-width="2.8" stroke-linecap="round" fill="none"/>
  <path d="M11.5 10.5 L11.5 21.5 L15.5 21.5 C19.4 21.5 22.5 18.7 22.5 16 C22.5 13.3 19.4 10.5 15.5 10.5 Z M14 13 L15.5 13 C17.9 13 20 14.3 20 16 C20 17.7 17.9 19 15.5 19 L14 19 Z" fill="url(#dg)"/>
</svg>
