<svg xmlns="http://www.w3.org/2000/svg" viewBox="0 0 32 32" fill="none">
  <defs>
    <linearGradient id="pg" x1="0%" y1="0%" x2="100%" y2="100%">
      <stop offset="0%" stop-color="#8B2FC9"/>
      <stop offset="100%" stop-color="#5B1E8C"/>
    </linearGradient>
  </defs>
  <path d="M16 2 L30 16 L16 30 L2 16 Z" fill="url(#pg)" opacity="0.18"/>
  <path d="M16 5.5 L26.5 16 L16 26.5 L5.5 16 Z" fill="url(#pg)"/>
  <path d="M12.5 12 L12.5 21 L15 21 L15 18 L18 18 C20.2 18 22 16.2 22 14 C22 11.8 20.2 10 18 10 L12.5 10 Z M15 13 L18 13 C18.8 13 19.5 13.7 19.5 14.5 C19.5 15.3 18.8 16 18 16 L15 16 Z" fill="white"/>
</svg>
